<svg width="180" height="180" viewBox="0 0 180 180" fill="none" xmlns="http://www.w3.org/2000/svg">
<path fill-rule="evenodd" clip-rule="evenodd" d="M32 0C14.3269 0 0 14.3269 0 32V148C0 165.673 14.3269 180 32 180H148C165.673 180 180 165.673 180 148V32C180 14.3269 165.673 0 148 0H32ZM31.1284 11.6133C31.0068 11.4784 30.9459 11.2944 30.9946 11.1717C31.0676 10.9877 31.0919 10.9877 31.2865 11.1595C31.4081 11.2698 31.8216 11.5029 32.1987 11.6869C32.8189 11.969 33.0257 12.0058 33.8405 11.9567L34.777 11.8954L35.5311 12.4351C35.9446 12.7172 37.0392 13.3059 37.9635 13.723C39.3743 14.3608 39.873 14.6797 41.1014 15.6364C42.9378 17.096 43.4243 17.5621 43.6068 18.0405C43.6797 18.249 44.7378 20.4568 45.9419 22.959C47.4014 25.9886 48.3743 27.8407 48.8608 28.5399C49.7851 29.8523 50.5513 31.9497 51.3176 35.2369C52.1203 38.7203 52.9108 40.7809 54.3824 43.3199C57.2405 48.2262 58.5176 50.1273 58.9676 50.1273C59.2959 50.1273 59.6365 48.8885 60.0743 46.1288L60.3905 44.154L60.1595 43.5284C59.7581 42.4736 58.8946 41.3942 57.4716 40.1922C56.0486 38.9902 55.7811 38.5854 56.0243 38.0457C56.0973 37.874 56.3405 37.6287 56.5716 37.4938C56.9487 37.273 56.973 37.2116 56.9487 36.7333C56.9122 36.2427 56.9365 36.2059 57.2284 36.1691C57.5324 36.1323 57.5446 36.1077 57.423 35.7766C57.2649 35.3595 57.4595 35.0406 57.8851 35.0406C58.2257 35.0406 58.3108 34.8444 58.1405 34.4151C57.9581 33.8999 58.177 33.7405 59.2595 33.6301C60.3176 33.532 60.7432 33.4093 60.5243 33.2744C60.4392 33.2253 60.3784 33.0659 60.3784 32.9309C60.3784 32.8084 60.3784 32.7415 60.4023 32.7314C60.4311 32.7193 60.4944 32.7892 60.6338 32.9432C60.7797 33.0904 60.9257 33.1763 60.9743 33.1149C61.0041 33.0749 61.1229 32.937 61.2514 32.7876C61.2805 32.7539 61.31 32.7195 61.3392 32.6856C61.5216 32.4771 61.6432 32.1582 61.6676 31.827C61.7405 30.9684 62.0568 30.3184 62.677 29.7296C63.5284 28.9324 64.2703 28.7238 66.277 28.7238C67.6757 28.7361 67.9676 28.7729 68.8068 29.0673C69.3176 29.2513 69.8041 29.3984 69.8892 29.3984C69.9622 29.3984 70.5338 29.6928 71.1784 30.0363C73.7932 31.4959 75.7392 34.0103 76.3108 36.6842C76.4081 37.1626 76.5662 37.4447 76.9797 37.8617C77.8919 38.8062 77.8554 39.7016 76.7851 41.7867C76.1527 43.001 75.5203 43.8596 75.1432 43.9945C74.973 44.0681 74.45 44.1172 73.9878 44.1172C73.0757 44.1172 72.7838 44.2276 71.823 44.9145C71.1054 45.4296 69.4635 46.2637 68.8068 46.4354C68.4297 46.5335 68.2351 46.6807 68.0527 47.0119C67.8095 47.4166 67.8095 47.4902 67.9676 47.7233C68.2838 48.1894 68.6973 48.6187 69.0743 48.8763L69.4514 49.1216L70.7405 47.9931C71.823 47.0364 72.3703 46.6684 74.2554 45.6504C75.4838 44.9758 77.4419 43.9823 78.5973 43.4426C80.4824 42.5472 80.9324 42.2651 82.9149 40.7809C86.7946 37.8617 89.823 35.2369 91.3554 33.4584C92.4743 32.1582 92.8635 31.8025 93.5446 31.4223C96.1351 29.9627 102.046 26.2952 103.53 25.2036C106.68 22.8977 108.832 21.6343 110.146 21.3154C110.462 21.2418 111.532 21.1191 112.518 21.0578C113.503 20.9842 114.391 20.9106 114.5 20.8738C114.67 20.8248 119.705 20.2973 121.712 20.1256L122.649 20.052V20.3587C122.649 20.837 122.296 21.1191 121.323 21.4135C120.241 21.757 120.326 21.8551 121.822 22.0513C123.269 22.2476 123.378 22.2721 123.378 22.4561C123.378 23.0939 120.326 23.0326 118.355 22.3457L117.772 22.1495L116.799 22.8486L115.814 23.5477L117.042 24.1365C118.088 24.6394 118.295 24.7866 118.477 25.1668C118.635 25.498 118.659 25.6574 118.562 25.8169C118.319 26.1971 117.918 26.1235 116.799 25.4734C115.716 24.8479 115.692 24.8356 113.491 24.4922L113.276 24.4576C112.143 24.2747 111.12 24.1098 110.949 24.0752C110.462 23.977 107.519 26.2707 105.099 28.638C104.016 29.6928 102.666 30.9807 102.095 31.4836C101.523 31.9865 100.672 32.7592 100.197 33.2008C99.6865 33.6914 98.4216 34.5991 97.0716 35.4699L94.7851 36.9173L90.3824 41.2838C87.9622 43.6879 84.8365 46.6807 83.4257 47.9195C82.027 49.1584 79.9595 51.0595 78.8405 52.1266L76.8095 54.0891L76.4446 55.2053C76.2378 55.8186 75.7392 57.5603 75.3257 59.0813C74.4986 62.0863 74.3649 63.2148 74.5473 65.4103L74.6324 66.4529L75.3622 67.0662L76.0919 67.6795H80.8473C82.7128 67.6795 84.5108 67.6856 85.5532 67.6892C85.9788 67.6907 86.2785 67.6917 86.4054 67.6917L87.1959 67.7162L90.8446 65.8028C92.8513 64.748 94.773 63.8158 95.1013 63.7299C95.5878 63.6073 96.0865 63.2761 97.5338 62.1109C99.9054 60.222 101.219 59.3388 103.007 58.468C104.831 57.5726 105.78 57.2537 107.02 57.1188C107.738 57.0452 108.309 56.8857 109.209 56.5055C110.036 56.1498 110.608 55.9781 111.022 55.9658C111.618 55.9535 111.642 55.9658 111.885 56.4564C112.116 56.9348 112.153 56.9593 112.469 56.8489C112.943 56.6772 113.162 56.7999 113.162 57.2414C113.162 57.4745 113.369 57.9774 113.661 58.4925C114.257 59.5106 114.232 59.7804 113.491 60.3324C113.211 60.5409 113.089 60.6758 113.211 60.6267C113.564 60.5041 116.604 59.7436 117.966 59.4492C118.635 59.302 120.35 58.7501 121.773 58.2104C125.482 56.8121 129.131 56.0149 135.796 55.1685C141.086 54.4939 142.789 54.1382 146.535 52.8871C149.904 51.7709 150.147 51.5992 153.164 48.3611C154.392 47.0487 155.827 45.6259 156.362 45.1966C158.259 43.6879 160.327 42.584 161.543 42.4368C162.078 42.3755 162.151 42.4 162.699 42.8906C163.015 43.1727 163.441 43.6511 163.647 43.9577C164 44.4729 164.012 44.5342 163.891 45.0616C163.526 46.4845 161.689 49.1461 160.461 49.9924C160.035 50.2991 158.624 51.4152 157.323 52.4946C156.022 53.5617 154.647 54.592 154.282 54.7883C153.431 55.2176 152.118 55.6346 150.014 56.1375C147.776 56.6772 145.915 57.2169 145.392 57.4867C145.149 57.6094 144.005 58.3085 142.838 59.0567C139.992 60.8475 138.508 61.6816 134.689 63.6563L131.466 65.3245L128.936 65.95C124.984 66.919 123.889 67.3238 121.493 68.722C119.584 69.8259 119.134 70.0222 115.509 71.3591C112.554 72.4385 111.228 72.9905 110.158 73.5915C109.368 74.0331 108.236 74.6341 107.653 74.9284L106.582 75.4559L106.68 76.1918C106.862 77.5288 106.789 78.326 106.376 79.5158C106.157 80.1291 105.986 80.8037 105.986 81.0122C105.986 81.3924 105.962 81.417 105.232 81.5764C105.026 81.6255 104.819 81.7972 104.697 82.0302C104.539 82.3491 104.454 82.3982 104.174 82.3491C103.98 82.3123 103.554 82.2388 103.214 82.1897C102.618 82.1161 102.593 82.1284 102.168 82.6067C101.876 82.9379 101.584 83.1219 101.292 83.1832C100.672 83.2936 99.273 84.4343 99.3703 84.7409C99.4189 84.9249 99.3216 85.023 98.8473 85.2193C97.2662 85.9184 94.7851 87.1695 93.0338 88.163L91.0878 89.267L90.7351 91.7446C90.2608 94.9582 90.2 95.8904 90.1878 99.8645C90.1757 102.403 90.0541 104.832 89.677 110.29L89.1784 117.404L89.5554 119.183C90.0054 121.342 90.1635 123.586 90.1878 128.259L90.2122 131.632L89.8351 133.141C89.3243 135.128 88.5459 137.532 87.3541 140.77C86.8189 142.218 86.0041 144.536 85.5419 145.922C84.3257 149.553 84.3622 149.798 86.223 151.809C87.4392 153.122 87.4514 153.208 86.8068 154.52C86.4662 155.219 86.1257 155.661 85.3595 156.409C84.2527 157.488 84.1068 157.746 83.7905 159.439C83.6081 160.395 83.6203 160.481 83.9243 162.223C84.35 164.639 84.3135 166.038 83.7905 167.019C83.45 167.644 83.3892 167.706 82.7932 167.853C82.1608 168 82.1487 168 81.5405 167.608C80.9689 167.24 80.8473 167.068 80.1419 165.67C79.2176 163.817 78.7432 162.48 78.1838 160.224C77.7946 158.605 77.7703 158.384 77.7703 156.409V154.312L78.8041 150.423C79.8865 146.351 80.3 143.996 80.75 139.544C80.8595 138.501 80.9932 137.311 81.0541 136.907C81.1149 136.502 81.2243 135.508 81.2973 134.699C81.3581 133.889 81.6135 131.363 81.8568 129.081L82.3068 124.948L81.6743 122.507C81.2365 120.826 80.8595 118.901 80.4459 116.3C80.1176 114.215 79.8014 112.486 79.7405 112.449C79.6919 112.412 79.1932 110.744 78.6459 108.757L77.6487 105.139L77.5149 101.091C77.4297 98.8587 77.3568 97.0188 77.3324 96.9943C77.3203 96.9698 76.9797 97.1783 76.5905 97.4604C76.2014 97.7302 75.7149 97.9878 75.5081 98.0369C75.3014 98.0737 75.0459 98.2454 74.9243 98.4294C74.8027 98.6134 74.5351 98.8709 74.3284 99.0059C73.8541 99.3125 73.7203 99.8767 73.7932 101.25C73.8541 102.195 73.8297 102.269 73.5622 102.489C73.4041 102.612 72.7838 102.808 72.1514 102.919C71.5311 103.041 70.85 103.213 70.6432 103.311C69.9257 103.655 69.4392 104.624 68.8797 106.831C68.6 107.948 68.1743 108.929 67.773 109.407L67.4932 109.738L66.8243 109.419C66.4595 109.235 66.0703 109.015 65.9486 108.916C65.7784 108.757 65.7054 108.769 65.377 108.929C64.8794 109.198 64.8663 109.186 64.2497 108.638L64.2459 108.634L63.6987 108.156L63.4676 108.401C63.3338 108.549 62.9081 108.929 62.4946 109.248C61.6432 109.922 61.5581 109.91 60.9865 109.064C60.6216 108.536 60.5851 108.512 60.0135 108.512C59.4905 108.512 59.3811 108.463 59.1987 108.181C59.077 108.009 58.9554 107.604 58.9189 107.297L58.8581 106.733L58.1041 106.488C57.6905 106.353 57.3257 106.206 57.277 106.157C57.2405 106.12 57.3987 105.372 57.6297 104.501C57.8608 103.642 58.2257 102.195 58.4324 101.287L58.8095 99.6559L60.4878 97.0556C61.6068 95.3262 62.6892 93.4495 63.7351 91.4012C65.1459 88.6414 65.377 88.2612 66.0459 87.5988C66.4716 87.1818 67.0676 86.4091 67.4081 85.8203C67.7486 85.2438 68.1622 84.5815 68.3203 84.3484L68.6122 83.9314L64.477 79.7488C60.6216 75.8484 60.2203 75.4068 58.4203 73.0027C57.3622 71.5799 56.1216 70.0099 55.6473 69.507C54.3703 68.121 53.8108 66.6001 53.5068 63.7422C53.4095 62.7487 53.6162 60.2465 53.9324 58.7501C54.2486 57.2782 54.2486 56.1988 53.9324 55.4138C53.8108 55.0827 52.7649 52.9116 51.6216 50.5934L49.5419 46.3863L47.827 41.3574C46.8905 38.5854 45.6622 35.1388 45.1149 33.6791C43.5216 29.5211 42.6703 26.8717 41.8797 23.6949C41.0041 20.1502 40.1892 18.1386 39.1554 17.0347C38.3162 16.127 38.0243 15.9921 37.1122 16.0902C36.4797 16.1638 36.2243 16.1148 35.4946 15.8572C34.8013 15.5996 34.4 15.5383 33.5243 15.5383C32.6851 15.5383 32.3811 15.4892 32.2351 15.342C31.9797 15.0845 31.9919 14.9741 32.3081 14.7533C32.5027 14.6061 32.8797 14.557 33.7068 14.557C35.0932 14.557 35.1419 14.4344 34.023 13.772C33.0865 13.2201 32.6608 13.1956 31.4324 13.5758C30.5203 13.8579 29.5108 13.8947 29.1824 13.6616C28.8784 13.4286 29.0486 13.2078 29.5351 13.2078C30.0338 13.2078 31.2378 12.8521 31.1284 12.7417C31.0797 12.6927 30.6784 12.5209 30.2405 12.3492C29.7297 12.153 29.4135 11.9567 29.3892 11.8218C29.3405 11.5642 29.5351 11.5642 30.5203 11.7973C30.9095 11.8954 31.2622 11.9445 31.2986 11.9199C31.323 11.8831 31.25 11.7482 31.1284 11.6133Z" fill="#FDA4AF"/>
</svg>
