<svg width="180" height="180" viewBox="0 0 180 180" fill="none" xmlns="http://www.w3.org/2000/svg">
<rect width="180" height="180" rx="32" fill="#09090B"/>
<g clip-path="url(#clip0_2_11)">
<path d="M30.9946 11.1717C30.9459 11.2944 31.0068 11.4784 31.1284 11.6133C31.25 11.7482 31.323 11.8831 31.2986 11.9199C31.2622 11.9445 30.9095 11.8954 30.5203 11.7973C29.5351 11.5642 29.3405 11.5642 29.3892 11.8218C29.4135 11.9567 29.7297 12.153 30.2405 12.3492C30.6784 12.5209 31.0797 12.6927 31.1284 12.7417C31.2378 12.8521 30.0338 13.2078 29.5351 13.2078C29.0486 13.2078 28.8784 13.4286 29.1824 13.6616C29.5108 13.8947 30.5203 13.8579 31.4324 13.5758C32.6608 13.1956 33.0865 13.2201 34.023 13.772C35.1419 14.4344 35.0932 14.557 33.7068 14.557C32.8797 14.557 32.5027 14.6061 32.3081 14.7533C31.9919 14.9741 31.9797 15.0845 32.2351 15.342C32.3811 15.4892 32.6851 15.5383 33.5243 15.5383C34.4 15.5383 34.8013 15.5996 35.4946 15.8572C36.2243 16.1148 36.4797 16.1638 37.1122 16.0902C38.0243 15.9921 38.3162 16.127 39.1554 17.0347C40.1892 18.1386 41.0041 20.1502 41.8797 23.6949C42.6703 26.8717 43.5216 29.5211 45.1149 33.6791C45.6622 35.1388 46.8905 38.5854 47.827 41.3574L49.5419 46.3863L51.6216 50.5934C52.7649 52.9116 53.8108 55.0827 53.9324 55.4138C54.2486 56.1988 54.2486 57.2782 53.9324 58.7501C53.6162 60.2465 53.4095 62.7487 53.5068 63.7422C53.8108 66.6001 54.3703 68.121 55.6473 69.507C56.1216 70.0099 57.3622 71.5799 58.4203 73.0027C60.2203 75.4068 60.6216 75.8484 64.477 79.7488L68.6122 83.9314L68.3203 84.3484C68.1622 84.5815 67.7486 85.2438 67.4081 85.8203C67.0676 86.4091 66.4716 87.1818 66.0459 87.5988C65.377 88.2612 65.1459 88.6414 63.7351 91.4012C62.6892 93.4495 61.6068 95.3262 60.4878 97.0556L58.8095 99.6559L58.4324 101.287C58.2257 102.195 57.8608 103.642 57.6297 104.501C57.3986 105.372 57.2405 106.12 57.277 106.157C57.3257 106.206 57.6905 106.353 58.1041 106.488L58.8581 106.733L58.9189 107.297C58.9554 107.604 59.077 108.009 59.1986 108.181C59.3811 108.463 59.4905 108.512 60.0135 108.512C60.5851 108.512 60.6216 108.536 60.9865 109.064C61.5581 109.91 61.6432 109.922 62.4946 109.248C62.9081 108.929 63.3338 108.549 63.4676 108.401L63.6986 108.156L64.2459 108.634C64.8662 109.186 64.8784 109.199 65.377 108.929C65.7054 108.769 65.7784 108.757 65.9486 108.916C66.0703 109.015 66.4595 109.235 66.8243 109.419L67.4932 109.738L67.773 109.407C68.1743 108.929 68.6 107.948 68.8797 106.831C69.4392 104.624 69.9257 103.655 70.6432 103.311C70.85 103.213 71.5311 103.041 72.1513 102.919C72.7838 102.808 73.4041 102.612 73.5622 102.489C73.8297 102.269 73.8541 102.195 73.7932 101.25C73.7203 99.8767 73.8541 99.3125 74.3284 99.0059C74.5351 98.8709 74.8027 98.6134 74.9243 98.4294C75.0459 98.2454 75.3013 98.0737 75.5081 98.0369C75.7149 97.9878 76.2013 97.7302 76.5905 97.4604C76.9797 97.1783 77.3203 96.9698 77.3324 96.9943C77.3568 97.0188 77.4297 98.8587 77.5149 101.091L77.6486 105.139L78.6459 108.757C79.1932 110.744 79.6919 112.412 79.7405 112.449C79.8013 112.486 80.1176 114.215 80.4459 116.3C80.8595 118.901 81.2365 120.826 81.6743 122.507L82.3068 124.948L81.8568 129.081C81.6135 131.363 81.3581 133.889 81.2973 134.699C81.2243 135.508 81.1149 136.502 81.0541 136.907C80.9932 137.311 80.8595 138.501 80.75 139.544C80.3 143.996 79.8865 146.351 78.8041 150.423L77.7703 154.312V156.409C77.7703 158.384 77.7946 158.605 78.1838 160.224C78.7432 162.48 79.2176 163.817 80.1419 165.67C80.8473 167.068 80.9689 167.24 81.5405 167.608C82.1486 168 82.1608 168 82.7932 167.853C83.3892 167.706 83.45 167.644 83.7905 167.019C84.3135 166.038 84.35 164.639 83.9243 162.223C83.6203 160.481 83.6081 160.395 83.7905 159.439C84.1068 157.746 84.2527 157.488 85.3595 156.409C86.1257 155.661 86.4662 155.219 86.8068 154.52C87.4513 153.208 87.4392 153.122 86.223 151.809C84.3622 149.798 84.3257 149.553 85.5419 145.922C86.0041 144.536 86.8189 142.218 87.3541 140.77C88.5459 137.532 89.3243 135.128 89.8351 133.141L90.2122 131.632L90.1878 128.259C90.1635 123.586 90.0054 121.342 89.5554 119.183L89.1784 117.404L89.677 110.29C90.0541 104.832 90.1757 102.403 90.1878 99.8645C90.2 95.8904 90.2608 94.9582 90.7351 91.7446L91.0878 89.267L93.0338 88.163C94.7851 87.1695 97.2662 85.9184 98.8473 85.2193C99.3216 85.023 99.4189 84.9249 99.3703 84.7409C99.273 84.4343 100.672 83.2936 101.292 83.1832C101.584 83.1219 101.876 82.9379 102.168 82.6067C102.593 82.1284 102.618 82.1161 103.214 82.1897C103.554 82.2388 103.98 82.3123 104.174 82.3491C104.454 82.3982 104.539 82.3491 104.697 82.0302C104.819 81.7972 105.026 81.6255 105.232 81.5764C105.962 81.417 105.986 81.3924 105.986 81.0122C105.986 80.8037 106.157 80.1291 106.376 79.5158C106.789 78.326 106.862 77.5288 106.68 76.1918L106.582 75.4559L107.653 74.9284C108.236 74.6341 109.368 74.033 110.158 73.5915C111.228 72.9905 112.554 72.4385 115.509 71.3591C119.134 70.0222 119.584 69.8259 121.493 68.722C123.889 67.3238 124.984 66.919 128.936 65.95L131.466 65.3245L134.689 63.6563C138.508 61.6816 139.992 60.8475 142.838 59.0567C144.005 58.3085 145.149 57.6094 145.392 57.4867C145.915 57.2169 147.776 56.6772 150.014 56.1375C152.118 55.6346 153.431 55.2176 154.282 54.7883C154.647 54.592 156.022 53.5617 157.323 52.4946C158.624 51.4152 160.035 50.2991 160.461 49.9924C161.689 49.1461 163.526 46.4845 163.891 45.0616C164.012 44.5342 164 44.4729 163.647 43.9577C163.441 43.6511 163.015 43.1727 162.699 42.8906C162.151 42.4 162.078 42.3755 161.543 42.4368C160.327 42.584 158.259 43.6879 156.362 45.1966C155.827 45.6259 154.392 47.0487 153.164 48.3611C150.147 51.5992 149.904 51.7709 146.535 52.8871C142.789 54.1382 141.086 54.4939 135.796 55.1685C129.131 56.0149 125.482 56.8121 121.773 58.2104C120.35 58.7501 118.635 59.302 117.966 59.4492C116.604 59.7436 113.564 60.5041 113.211 60.6267C113.089 60.6758 113.211 60.5409 113.491 60.3324C114.232 59.7804 114.257 59.5106 113.661 58.4925C113.369 57.9774 113.162 57.4745 113.162 57.2414C113.162 56.7999 112.943 56.6772 112.469 56.8489C112.153 56.9593 112.116 56.9348 111.885 56.4564C111.642 55.9658 111.618 55.9535 111.022 55.9658C110.608 55.9781 110.036 56.1498 109.209 56.5055C108.309 56.8857 107.738 57.0452 107.02 57.1188C105.78 57.2537 104.831 57.5726 103.007 58.468C101.219 59.3388 99.9054 60.222 97.5338 62.1109C96.0865 63.2761 95.5878 63.6073 95.1013 63.7299C94.773 63.8158 92.8513 64.748 90.8446 65.8028L87.1959 67.7163L86.4054 67.6917C85.9676 67.6917 83.4743 67.6795 80.8473 67.6795H76.0919L75.3622 67.0662L74.6324 66.4529L74.5473 65.4103C74.3649 63.2148 74.4986 62.0863 75.3257 59.0813C75.7392 57.5603 76.2378 55.8186 76.4446 55.2053L76.8095 54.0891L78.8405 52.1266C79.9595 51.0595 82.027 49.1584 83.4257 47.9195C84.8365 46.6807 87.9622 43.6879 90.3824 41.2838L94.7851 36.9173L97.0716 35.4699C98.4216 34.5991 99.6865 33.6914 100.197 33.2008C100.672 32.7592 101.523 31.9865 102.095 31.4836C102.666 30.9807 104.016 29.6928 105.099 28.638C107.519 26.2707 110.462 23.977 110.949 24.0752C111.131 24.112 112.274 24.2959 113.491 24.4922C115.692 24.8356 115.716 24.8479 116.799 25.4734C117.918 26.1235 118.319 26.1971 118.562 25.8169C118.659 25.6574 118.635 25.498 118.477 25.1668C118.295 24.7866 118.088 24.6394 117.042 24.1365L115.814 23.5477L116.799 22.8486L117.772 22.1495L118.355 22.3457C120.326 23.0326 123.378 23.0939 123.378 22.4561C123.378 22.2721 123.269 22.2476 121.822 22.0513C120.326 21.8551 120.241 21.757 121.323 21.4135C122.296 21.1191 122.649 20.837 122.649 20.3587V20.052L121.712 20.1256C119.705 20.2973 114.67 20.8248 114.5 20.8738C114.391 20.9106 113.503 20.9842 112.518 21.0578C111.532 21.1191 110.462 21.2418 110.146 21.3154C108.832 21.6343 106.68 22.8977 103.53 25.2036C102.046 26.2952 96.1351 29.9627 93.5446 31.4223C92.8635 31.8025 92.4743 32.1582 91.3554 33.4584C89.823 35.2369 86.7946 37.8617 82.9149 40.7809C80.9324 42.2651 80.4824 42.5472 78.5973 43.4426C77.4419 43.9823 75.4838 44.9758 74.2554 45.6504C72.3703 46.6684 71.823 47.0364 70.7405 47.9931L69.4513 49.1216L69.0743 48.8763C68.6973 48.6187 68.2838 48.1894 67.9676 47.7233C67.8095 47.4902 67.8095 47.4166 68.0527 47.0119C68.2351 46.6807 68.4297 46.5335 68.8068 46.4354C69.4635 46.2637 71.1054 45.4296 71.823 44.9145C72.7838 44.2276 73.0757 44.1172 73.9878 44.1172C74.45 44.1172 74.973 44.0681 75.1432 43.9945C75.5203 43.8596 76.1527 43.001 76.7851 41.7867C77.8554 39.7016 77.8919 38.8062 76.9797 37.8617C76.5662 37.4447 76.4081 37.1626 76.3108 36.6842C75.7392 34.0103 73.7932 31.4959 71.1784 30.0363C70.5338 29.6928 69.9622 29.3984 69.8892 29.3984C69.8041 29.3984 69.3176 29.2513 68.8068 29.0673C67.9676 28.7729 67.6757 28.7361 66.277 28.7238C64.2703 28.7238 63.5284 28.9323 62.677 29.7296C62.0568 30.3184 61.7405 30.9684 61.6676 31.827C61.6432 32.1582 61.5216 32.4771 61.3392 32.6856C61.1811 32.8696 61.0108 33.0659 60.9743 33.1149C60.9257 33.1763 60.7797 33.0904 60.6338 32.9432C60.3784 32.6611 60.3784 32.6611 60.3784 32.9309C60.3784 33.0659 60.4392 33.2253 60.5243 33.2744C60.7432 33.4093 60.3176 33.532 59.2595 33.6301C58.177 33.7405 57.9581 33.8999 58.1405 34.4151C58.3108 34.8444 58.2257 35.0406 57.8851 35.0406C57.4595 35.0406 57.2649 35.3595 57.423 35.7766C57.5446 36.1077 57.5324 36.1323 57.2284 36.1691C56.9365 36.2059 56.9122 36.2427 56.9486 36.7333C56.973 37.2116 56.9486 37.273 56.5716 37.4938C56.3405 37.6287 56.0973 37.874 56.0243 38.0457C55.7811 38.5854 56.0486 38.9902 57.4716 40.1922C58.8946 41.3942 59.7581 42.4736 60.1595 43.5284L60.3905 44.154L60.0743 46.1288C59.6365 48.8885 59.2959 50.1274 58.9676 50.1274C58.5176 50.1274 57.2405 48.2262 54.3824 43.3199C52.9108 40.7809 52.1203 38.7203 51.3176 35.2369C50.5513 31.9497 49.7851 29.8523 48.8608 28.5398C48.3743 27.8407 47.4013 25.9886 45.9419 22.959C44.7378 20.4568 43.6797 18.249 43.6068 18.0405C43.4243 17.5621 42.9378 17.096 41.1013 15.6364C39.873 14.6797 39.3743 14.3608 37.9635 13.723C37.0392 13.3059 35.9446 12.7172 35.5311 12.4351L34.777 11.8954L33.8405 11.9567C33.0257 12.0058 32.8189 11.969 32.1986 11.6869C31.8216 11.5029 31.4081 11.2698 31.2865 11.1595C31.0919 10.9877 31.0676 10.9877 30.9946 11.1717Z" fill="#FDA4AF"/>
</g>
<defs>
<clipPath id="clip0_2_11">
<rect width="135" height="157" fill="white" transform="translate(29 11)"/>
</clipPath>
</defs>
</svg>
